<?xml version="1.0" standalone="no"?>
<!DOCTYPE svg PUBLIC "-//W3C//DTD SVG 20010904//EN"
 "http://www.w3.org/TR/2001/REC-SVG-20010904/DTD/svg10.dtd">
<svg version="1.0" xmlns="http://www.w3.org/2000/svg"
 width="300.000000pt" height="300.000000pt" viewBox="0 0 300.000000 300.000000"
 preserveAspectRatio="xMidYMid meet">
<metadata>
Created by potrace 1.10, written by Peter Selinger 2001-2011
</metadata>
<g transform="translate(0.000000,300.000000) scale(0.100000,-0.100000)"
fill="#000000" stroke="none">
<path d="M1427 2510 c-92 -24 -176 -90 -215 -171 -28 -57 -46 -152 -37 -197 5
-26 1 -45 -16 -77 -21 -39 -22 -47 -10 -84 12 -42 56 -81 91 -81 10 0 20 -16
27 -42 7 -24 27 -61 45 -83 21 -25 33 -51 33 -69 0 -30 -1 -30 -149 -77 -103
-33 -160 -57 -186 -78 -35 -28 -46 -31 -105 -31 -57 0 -69 -3 -90 -25 -18 -17
-25 -35 -25 -62 0 -34 29 -441 46 -630 l6 -73 -170 0 c-182 0 -210 -5 -256
-48 -54 -51 -85 -159 -54 -190 17 -17 2259 -17 2276 0 31 31 0 139 -54 190
-46 43 -74 48 -256 48 l-170 0 6 73 c17 189 46 596 46 630 0 27 -7 45 -25 62
-21 22 -33 25 -90 25 -59 0 -70 3 -105 31 -26 21 -83 45 -186 78 -148 47 -149
47 -149 77 0 18 12 44 33 69 18 22 38 59 45 83 7 26 17 42 27 42 35 0 79 39
91 81 12 37 11 45 -10 84 -17 31 -21 51 -16 77 8 41 -10 150 -32 193 -67 131
-230 209 -366 175z m179 -79 c95 -43 147 -126 151 -241 2 -52 0 -69 -6 -54 -5
12 -34 48 -64 80 l-54 58 -47 -32 c-66 -43 -131 -62 -233 -70 -80 -6 -89 -9
-100 -32 -12 -23 -13 -19 -13 40 0 109 61 207 155 251 54 25 156 25 211 0z
m78 -423 c-1 -94 -5 -122 -23 -155 -66 -130 -256 -130 -322 -1 -17 33 -21 61
-22 147 l-2 106 76 7 c79 7 172 34 211 63 22 15 24 15 53 -18 30 -35 30 -35
29 -149z m-434 2 c0 -47 -2 -50 -19 -41 -27 15 -34 41 -16 67 24 37 35 29 35
-26z m535 26 c18 -26 11 -52 -16 -67 -17 -9 -19 -6 -19 41 0 55 11 63 35 26z
m-285 -346 c21 0 50 4 64 10 24 9 26 7 26 -16 0 -23 -74 -129 -90 -129 -16 0
-90 106 -90 129 0 23 2 25 26 16 14 -6 43 -10 64 -10z m-96 -125 l37 -45 -182
0 c-100 0 -180 2 -178 5 6 5 259 83 275 84 7 1 28 -19 48 -44z m376 5 c74 -23
136 -43 139 -45 2 -3 -78 -5 -178 -5 l-182 0 38 45 c20 25 40 45 43 45 3 0 66
-18 140 -40z m-245 -60 c4 -6 -10 -10 -35 -10 -25 0 -39 4 -35 10 3 6 19 10
35 10 16 0 32 -4 35 -10z m609 -58 c3 -5 -7 -169 -22 -365 l-26 -357 -596 0
-596 0 -26 357 c-15 196 -25 360 -22 365 7 10 1281 10 1288 0z m395 -816 c26
-25 58 -86 45 -86 -199 -3 -2164 1 -2164 5 0 3 0 11 0 19 0 20 49 76 74 86 12
5 470 8 1018 7 l997 -2 30 -29z"/>
<path d="M1543 1342 c-7 -4 -40 -112 -74 -241 -60 -221 -62 -234 -45 -246 10
-8 24 -11 31 -9 11 4 135 438 135 472 0 15 -33 32 -47 24z"/>
<path d="M1242 1179 c-51 -38 -92 -76 -92 -84 0 -15 176 -155 195 -155 18 0
36 25 30 41 -3 8 -35 36 -70 63 -36 27 -65 50 -65 51 0 2 32 26 70 55 39 29
70 57 70 64 0 15 -20 36 -35 36 -6 0 -52 -32 -103 -71z"/>
<path d="M1632 1238 c-22 -22 -13 -36 58 -88 39 -29 70 -53 70 -55 0 -1 -29
-24 -65 -51 -35 -27 -67 -55 -70 -63 -6 -16 12 -41 30 -41 19 0 195 140 195
155 0 15 -177 155 -195 155 -6 0 -16 -5 -23 -12z"/>
</g>
</svg>
