<?xml version="1.0" standalone="no"?>
<!DOCTYPE svg PUBLIC "-//W3C//DTD SVG 20010904//EN"
 "http://www.w3.org/TR/2001/REC-SVG-20010904/DTD/svg10.dtd">
<svg version="1.0" xmlns="http://www.w3.org/2000/svg"
 width="300.000000pt" height="211.000000pt" viewBox="0 0 300.000000 211.000000"
 preserveAspectRatio="xMidYMid meet">
<metadata>
Created by potrace 1.10, written by Peter Selinger 2001-2011
</metadata>
<g transform="translate(0.000000,211.000000) scale(0.100000,-0.100000)"
fill="#000000" stroke="none">
<path d="M947 1453 c-4 -3 -7 -169 -7 -367 l-1 -361 -149 -162 c-100 -109
-148 -168 -144 -178 10 -24 25 -18 63 27 71 85 144 158 158 158 22 0 129 80
144 106 7 13 20 24 29 24 9 0 25 9 35 20 9 10 29 19 44 18 14 0 36 3 48 7 18
6 29 1 52 -24 16 -17 35 -31 43 -31 7 -1 26 -12 43 -25 23 -19 27 -27 18 -36
-10 -10 -18 -10 -38 -1 -22 10 -33 9 -60 -4 -19 -9 -39 -22 -46 -30 -10 -12
-1 -14 58 -14 71 0 93 -10 93 -41 0 -20 -20 -29 -64 -29 -18 0 -69 -9 -115
-21 -45 -11 -84 -19 -85 -17 -1 1 -10 16 -20 31 -19 31 -86 66 -125 67 -24 0
-24 0 -5 -15 10 -8 27 -15 38 -15 10 0 28 -10 40 -23 11 -12 34 -32 50 -43
l29 -21 -27 -36 c-15 -19 -37 -38 -49 -41 -15 -4 -35 -32 -67 -93 -24 -48 -43
-91 -42 -95 1 -5 -9 -47 -23 -94 -24 -82 -26 -110 -6 -88 4 5 22 51 40 102 18
52 49 131 71 178 l39 84 494 0 494 0 30 -62 c17 -35 47 -108 67 -163 50 -135
54 -145 66 -145 13 0 7 23 -36 157 -43 133 -77 199 -112 217 -40 21 -76 62
-69 81 4 8 22 25 41 36 19 11 37 26 40 34 3 8 13 15 23 15 10 1 29 7 43 15 22
13 23 14 5 15 -58 1 -145 -52 -145 -88 0 -16 -56 -10 -125 14 -22 8 -58 14
-81 14 -22 0 -49 6 -59 14 -19 14 -19 15 -1 35 16 17 31 21 83 21 34 0 63 3
63 8 -1 13 -51 44 -73 44 -12 0 -36 -4 -53 -10 -29 -9 -31 -8 -27 9 6 22 54
59 75 59 8 0 23 9 34 21 15 17 27 20 69 16 65 -6 126 -30 144 -57 18 -26 124
-100 145 -100 13 0 99 -92 162 -173 25 -30 39 -34 48 -12 4 10 -44 69 -142
176 l-147 161 -5 367 -5 366 -551 3 c-303 1 -554 -1 -557 -5z m1093 -368 l0
-336 -540 2 -540 2 0 334 0 333 540 0 540 0 0 -335z m-535 -375 c69 0 93 4
107 17 18 16 18 16 12 0 -5 -15 1 -17 47 -18 44 0 50 -2 31 -10 -13 -5 -20
-13 -17 -19 3 -6 -4 -10 -17 -11 -13 0 -17 -3 -10 -6 31 -13 6 -23 -58 -23
-38 0 -70 -3 -70 -7 0 -5 29 -6 65 -5 42 3 65 0 65 -7 0 -7 -27 -11 -72 -11
-94 0 -84 -8 14 -11 91 -2 94 -18 5 -21 l-62 -2 58 -3 c48 -3 58 -7 53 -19 -9
-22 11 -53 42 -66 34 -14 110 -29 141 -28 13 0 33 -7 43 -17 10 -9 18 -13 18
-9 0 4 10 1 23 -6 19 -11 7 -14 -93 -18 -63 -3 -146 -1 -185 3 -38 5 -131 6
-205 3 -153 -7 -362 -7 -369 -1 -6 7 5 16 21 19 7 1 20 6 28 11 8 5 24 11 35
12 11 2 31 6 45 10 14 3 29 5 35 4 45 -11 115 33 115 74 0 22 4 24 58 28 l57
3 -67 2 c-96 3 -86 22 11 22 73 0 79 1 74 19 -5 20 -27 29 -55 23 -31 -6 -20
-19 12 -14 19 3 30 0 30 -7 0 -8 -22 -11 -70 -10 -38 1 -67 6 -64 11 3 4 16 8
30 8 13 0 24 4 24 9 0 4 -11 6 -25 3 -16 -3 -25 0 -25 8 0 7 -11 23 -26 36
l-25 24 52 0 c44 0 50 2 45 17 -6 16 -6 16 12 0 14 -13 38 -17 107 -17z m-502
14 c7 -8 -19 -35 -56 -59 l-28 -18 27 42 c26 39 43 49 57 35z m1023 -2 c14 -9
37 -52 27 -52 -10 0 -53 42 -53 52 0 10 11 10 26 0z"/>
<path d="M1034 1387 c-2 -7 -3 -91 -2 -187 l3 -174 42 43 c24 25 39 49 36 57
-8 22 7 17 33 -11 13 -14 26 -21 29 -15 8 13 35 1 35 -17 0 -12 -8 -14 -35 -9
-30 6 -34 5 -28 -11 5 -15 3 -16 -8 -5 -18 17 -34 15 -19 -3 7 -8 10 -21 7
-29 -3 -7 -1 -18 5 -24 6 -6 6 -12 -2 -17 -16 -10 -31 15 -24 37 4 14 1 16
-13 11 -16 -6 -16 -5 -4 10 8 10 9 17 3 17 -15 0 -25 -19 -27 -47 0 -19 3 -22
20 -17 18 6 18 4 -5 -20 -13 -15 -30 -24 -37 -22 -10 4 -13 -14 -13 -78 l0
-84 153 4 c161 5 178 5 550 1 l237 -2 0 74 0 74 -22 -24 c-16 -16 -19 -25 -10
-27 13 -4 16 -40 4 -60 -6 -9 -56 -12 -195 -12 -103 -1 -192 2 -196 5 -5 3 -7
15 -4 28 3 15 -1 12 -12 -10 l-17 -32 -84 0 c-46 0 -84 5 -84 10 0 5 -9 9 -20
9 -13 0 -18 5 -14 15 4 8 2 15 -4 15 -14 0 -22 -26 -11 -37 11 -11 -61 -11
-80 1 -11 7 -11 10 3 18 9 5 14 14 10 19 -3 6 -11 4 -17 -5 -8 -10 -20 -14
-35 -10 -27 8 -24 29 5 30 27 2 43 12 43 30 0 10 13 14 51 14 45 0 50 -2 44
-19 -5 -16 -2 -18 14 -14 12 3 18 9 15 14 -3 5 0 9 5 9 6 0 11 -8 11 -17 1
-16 2 -16 13 -2 8 11 28 16 62 16 51 0 121 21 98 30 -23 8 -14 21 17 25 35 5
51 -10 26 -24 -23 -13 -21 -31 2 -19 18 10 48 88 38 98 -2 3 -11 -4 -18 -16
-16 -26 -88 -31 -88 -6 0 11 11 15 43 15 31 0 38 3 27 10 -8 5 -27 10 -42 10
-17 0 -28 6 -31 18 -4 16 -5 16 -6 0 -1 -15 -11 -18 -70 -18 -58 0 -70 3 -74
18 -4 16 -5 16 -6 0 -1 -16 -12 -18 -91 -18 -49 0 -93 0 -97 0 -5 0 -8 6 -8
13 0 9 18 11 68 9 40 -2 67 1 67 6 0 6 3 19 6 29 5 17 5 17 -9 1 -8 -10 -25
-18 -38 -17 -13 0 -18 3 -11 6 6 2 9 9 6 14 -3 6 0 16 6 24 9 11 9 19 2 28 -7
8 -7 17 2 30 15 19 31 24 20 5 -4 -7 -3 -8 4 -4 6 4 21 2 33 -5 18 -9 24 -8
31 5 6 11 23 16 60 16 49 0 50 0 44 -27 -3 -16 -3 -22 0 -15 3 6 17 12 31 12
14 0 33 10 43 22 17 21 18 21 61 5 53 -20 81 -21 98 -4 10 10 11 8 5 -7 -7
-17 -4 -18 26 -13 18 4 41 17 51 29 22 24 21 21 9 72 -5 25 -5 47 1 60 10 21
10 21 -5 2 -9 -11 -16 -23 -16 -28 0 -4 -13 -5 -30 -3 -16 3 -44 7 -60 10 -17
3 -29 1 -26 -3 2 -4 -9 -7 -25 -8 -32 -1 -35 6 -18 39 l12 22 -25 -22 c-29
-27 -38 -29 -38 -6 0 15 -2 14 -15 -4 -13 -18 -20 -20 -45 -13 -18 5 -30 5
-30 -1 0 -5 -58 -9 -135 -9 -111 0 -135 3 -135 14 0 21 -15 27 -42 17 -23 -10
-23 -10 5 -10 28 -1 36 -14 16 -27 -6 -3 -15 -1 -19 6 -6 9 -9 9 -15 0 -4 -6
-13 -9 -21 -6 -8 3 -14 1 -14 -4 0 -6 8 -10 19 -10 10 0 21 -8 23 -18 4 -15 1
-18 -18 -14 -14 2 -24 0 -24 -7 0 -6 9 -11 20 -11 11 0 20 -4 20 -10 0 -5 -11
-10 -25 -10 -26 0 -28 -2 -29 -65 -1 -29 -6 -40 -18 -43 -16 -3 -18 8 -18 127
l0 131 78 1 c42 0 124 0 182 0 66 0 110 5 119 12 12 10 13 9 2 -10 -6 -13 -17
-23 -24 -24 -7 0 -56 0 -110 1 -69 1 -97 -2 -92 -10 4 -6 46 -10 114 -9 106 1
107 1 123 29 11 19 23 27 35 25 57 -11 93 -13 87 -4 -3 6 3 5 14 -2 11 -7 28
-9 38 -5 26 10 174 13 174 3 0 -4 26 -5 57 -3 103 9 103 9 103 -106 0 -94 -1
-100 -22 -106 -21 -5 -21 -6 -2 -13 43 -17 44 -15 44 121 l0 130 -435 0 c-339
0 -435 -3 -435 -13 0 -8 -4 -7 -10 3 -6 10 -10 11 -10 3 0 -7 -5 -13 -11 -13
-6 0 -9 7 -5 15 3 9 0 15 -10 15 -8 0 -17 -6 -20 -13z m176 -122 c0 -8 -9 -15
-20 -15 -11 0 -20 7 -20 15 0 8 9 15 20 15 11 0 20 -7 20 -15z m310 0 c0 -13
-23 -15 -150 -15 -127 0 -150 2 -150 15 0 13 23 15 150 15 127 0 150 -2 150
-15z m80 0 c0 -10 -11 -15 -35 -15 -24 0 -35 5 -35 15 0 10 11 15 35 15 24 0
35 -5 35 -15z m160 0 c0 -12 -15 -15 -75 -15 -60 0 -75 3 -75 15 0 12 15 15
75 15 60 0 75 -3 75 -15z m-550 -51 c0 -8 -9 -14 -19 -14 -22 0 -35 15 -27 29
9 13 46 1 46 -15z m310 4 c0 -12 -48 -13 -282 -8 -10 0 -18 5 -18 10 0 6 57
10 150 10 113 0 150 -3 150 -12z m70 2 c0 -5 -13 -10 -30 -10 -16 0 -30 5 -30
10 0 6 14 10 30 10 17 0 30 -4 30 -10z m177 -2 c-5 -17 -159 -16 -165 0 -3 9
22 12 83 12 65 0 86 -3 82 -12z m-627 -43 c0 -8 -9 -15 -20 -15 -11 0 -20 7
-20 15 0 8 9 15 20 15 11 0 20 -7 20 -15z m40 -3 c0 -10 -5 -23 -12 -30 -9 -9
-9 -12 -1 -12 7 0 14 4 17 9 9 14 51 7 51 -9 0 -17 -52 -23 -71 -8 -17 12 -15
68 2 68 8 0 14 -8 14 -18z m30 -177 c0 -9 -9 -15 -25 -15 -16 0 -25 6 -25 15
0 9 9 15 25 15 16 0 25 -6 25 -15z m150 0 c0 -12 -14 -15 -70 -15 -56 0 -70 3
-70 15 0 12 14 15 70 15 56 0 70 -3 70 -15z m150 0 c0 -12 -14 -15 -70 -15
-56 0 -70 3 -70 15 0 12 14 15 70 15 56 0 70 -3 70 -15z m-374 -36 c10 -17
-13 -36 -27 -22 -12 12 -4 33 11 33 5 0 12 -5 16 -11z m374 -6 c0 -16 -9 -18
-67 -17 -91 1 -96 22 -6 27 37 2 69 4 71 5 1 1 2 -6 2 -15z m-300 -3 c0 -5 -7
-10 -15 -10 -8 0 -18 0 -22 -1 -4 0 -9 4 -11 10 -2 6 8 11 22 11 14 0 26 -4
26 -10z m150 1 c0 -13 -24 -17 -86 -13 -79 5 -66 22 16 22 39 0 70 -4 70 -9z
m-242 -36 c8 0 17 -6 19 -12 3 -8 -4 -13 -15 -13 -11 0 -23 -7 -26 -16 -5 -14
-4 -15 8 -5 8 7 20 10 26 6 18 -11 11 -25 -13 -25 -13 0 -28 -5 -34 -11 -19
-19 -33 0 -33 46 0 45 14 61 39 41 7 -6 21 -11 29 -11z m92 -10 c0 -9 -9 -15
-25 -15 -16 0 -25 6 -25 15 0 9 9 15 25 15 16 0 25 -6 25 -15z"/>
<path d="M1852 1097 c-43 -44 -49 -61 -32 -87 8 -11 9 -8 4 13 -6 24 0 35 37
73 24 24 41 44 38 44 -3 0 -24 -19 -47 -43z"/>
<path d="M1877 1082 c-20 -21 -37 -44 -37 -52 0 -13 2 -13 10 0 6 9 10 10 10
3 0 -6 14 -25 31 -42 22 -23 28 -35 21 -47 -7 -13 -14 -10 -40 21 -18 19 -32
32 -32 27 0 -4 17 -25 39 -46 39 -38 51 -37 58 4 1 8 9 20 17 26 12 8 16 29
16 78 0 66 0 66 -28 66 -19 0 -40 -12 -65 -38z m72 -16 c7 -8 11 -27 9 -43 -2
-22 -9 -29 -30 -31 -22 -3 -30 2 -40 24 -11 23 -10 28 11 45 28 23 35 23 50 5z"/>
<path d="M1412 1080 c-17 -28 -16 -30 18 -30 20 0 33 7 41 22 10 18 9 20 -6
14 -10 -3 -23 -2 -29 3 -8 7 -16 4 -24 -9z"/>
<path d="M1030 1001 c0 -10 6 -23 13 -29 9 -8 12 -3 12 19 0 17 -5 29 -12 29
-7 0 -13 -8 -13 -19z"/>
<path d="M1820 965 c0 -7 70 -75 78 -75 3 0 -12 18 -33 40 -39 40 -45 45 -45
35z"/>
<path d="M500 1175 c-8 -9 -11 -30 -8 -53 6 -40 -14 -84 -27 -62 -4 7 -19 10
-35 6 -18 -3 -33 0 -40 9 -29 35 -100 1 -100 -48 0 -25 28 -57 50 -57 9 0 11
-10 6 -37 -3 -21 -6 -48 -6 -59 0 -17 -8 -23 -35 -28 l-36 -7 4 -67 c3 -78 51
-193 88 -212 23 -13 146 -9 169 5 6 4 25 37 42 74 23 49 31 82 32 131 1 63 1
64 -30 73 -27 8 -31 15 -40 62 -9 53 -9 54 16 60 68 17 94 95 45 133 -14 11
-25 27 -25 37 0 47 -43 72 -70 40z m40 -46 c0 -6 12 -25 26 -42 16 -19 21 -32
14 -37 -6 -4 -8 -14 -5 -23 9 -21 -31 -43 -50 -27 -14 12 -16 1 -15 -104 1
-57 0 -58 -25 -54 -14 3 -25 1 -25 -5 0 -5 -6 -4 -14 2 -11 9 -15 9 -19 -1 -4
-10 -7 -10 -18 -1 -9 9 -16 10 -26 2 -20 -17 -27 14 -15 61 15 58 -4 113 -36
102 -17 -5 -15 25 3 32 8 3 15 13 15 21 0 14 4 13 26 -4 20 -16 37 -20 71 -17
25 2 46 -1 50 -8 8 -12 24 53 24 92 -1 12 4 22 9 22 6 0 10 -5 10 -11z m52
-324 c-3 -19 -11 -25 -31 -26 l-26 -2 28 -4 c27 -4 28 -6 21 -51 -4 -26 -10
-49 -14 -52 -4 -3 -17 -26 -29 -51 -21 -44 -25 -47 -69 -54 -40 -6 -49 -4 -63
14 -11 13 -19 17 -21 9 -2 -6 -10 -8 -16 -4 -17 10 -68 114 -76 155 l-6 34 42
-7 c49 -8 45 3 -4 13 -20 4 -34 14 -36 25 -4 16 3 18 85 13 70 -3 214 4 219
11 1 1 -1 -9 -4 -23z"/>
<path d="M2425 820 c-13 -5 22 -9 95 -9 73 0 108 4 95 9 -11 5 -54 9 -95 9
-41 0 -84 -4 -95 -9z"/>
<path d="M2393 735 c0 -38 2 -53 4 -32 2 20 2 52 0 70 -2 17 -4 1 -4 -38z"/>
<path d="M2641 688 c2 -30 3 -35 6 -15 5 35 30 35 44 1 13 -36 3 -63 -27 -70
-26 -7 -33 -24 -10 -24 22 0 56 49 56 81 0 18 -9 35 -26 48 -38 30 -44 26 -43
-21z"/>
<path d="M2447 692 c-10 -10 -17 -29 -17 -41 0 -19 5 -22 33 -19 38 4 48 35
19 61 -18 16 -20 16 -35 -1z"/>
<path d="M2751 615 c-6 -19 -24 -44 -38 -55 -14 -11 -21 -20 -15 -20 14 0 59
54 67 81 12 35 0 30 -14 -6z"/>
<path d="M2388 574 c-1 -36 0 -71 4 -78 4 -6 8 24 8 67 0 42 -2 77 -4 77 -2 0
-6 -30 -8 -66z"/>
<path d="M2633 469 c-8 -8 -49 -10 -128 -7 -65 2 -109 1 -101 -4 8 -5 62 -9
119 -9 113 0 168 8 145 22 -17 11 -22 11 -35 -2z"/>
<path d="M604 280 c-60 -81 -154 -245 -154 -267 0 -31 29 -9 45 34 25 64 78
152 142 232 26 33 46 81 34 81 -4 0 -35 -36 -67 -80z"/>
<path d="M2330 348 c0 -9 33 -65 73 -125 40 -59 86 -134 102 -165 28 -54 45
-72 45 -48 0 32 -128 246 -194 325 -19 22 -25 26 -26 13z"/>
</g>
</svg>
